<svg xmlns="http://www.w3.org/2000/svg" width="147.15" height="35" viewBox="0 0 147.15 35"><rect class="svg__rect" x="0" y="0" width="64.89" height="35" fill="#F1AD09"/><rect class="svg__rect" x="62.89" y="0" width="84.26" height="35" fill="#E7D712"/><path class="svg__text" d="M14.08 19.16L14.08 19.16L14.08 13.47L15.56 13.47L15.56 19.18Q15.56 20.03 15.99 20.48Q16.43 20.93 17.27 20.93L17.27 20.93Q18.98 20.93 18.98 19.13L18.98 19.13L18.98 13.47L20.46 13.47L20.46 19.17Q20.46 20.53 19.59 21.32Q18.72 22.12 17.27 22.12L17.27 22.12Q15.81 22.12 14.94 21.33Q14.08 20.55 14.08 19.16ZM24.59 19.42L24.59 19.42L26.08 19.42Q26.08 20.15 26.56 20.55Q27.04 20.95 27.93 20.95L27.93 20.95Q28.71 20.95 29.10 20.63Q29.49 20.32 29.49 19.80L29.49 19.80Q29.49 19.24 29.09 18.94Q28.70 18.63 27.66 18.32Q26.63 18.01 26.02 17.63L26.02 17.63Q24.86 16.90 24.86 15.72L24.86 15.72Q24.86 14.69 25.70 14.02Q26.54 13.35 27.88 13.35L27.88 13.35Q28.77 13.35 29.47 13.68Q30.17 14.01 30.56 14.61Q30.96 15.22 30.96 15.96L30.96 15.96L29.49 15.96Q29.49 15.29 29.07 14.91Q28.65 14.54 27.87 14.54L27.87 14.54Q27.14 14.54 26.74 14.85Q26.34 15.16 26.34 15.71L26.34 15.71Q26.34 16.18 26.77 16.50Q27.21 16.81 28.20 17.10Q29.20 17.40 29.80 17.78Q30.41 18.16 30.69 18.65Q30.97 19.13 30.97 19.79L30.97 19.79Q30.97 20.86 30.15 21.49Q29.33 22.12 27.93 22.12L27.93 22.12Q27.01 22.12 26.23 21.77Q25.46 21.43 25.02 20.83Q24.59 20.22 24.59 19.42ZM40.84 22L35.26 22L35.26 13.47L40.80 13.47L40.80 14.66L36.74 14.66L36.74 17.02L40.24 17.02L40.24 18.19L36.74 18.19L36.74 20.82L40.84 20.82L40.84 22ZM44.60 19.42L44.60 19.42L46.08 19.42Q46.08 20.15 46.56 20.55Q47.04 20.95 47.94 20.95L47.94 20.95Q48.71 20.95 49.10 20.63Q49.49 20.32 49.49 19.80L49.49 19.80Q49.49 19.24 49.10 18.94Q48.70 18.63 47.67 18.32Q46.64 18.01 46.03 17.63L46.03 17.63Q44.86 16.90 44.86 15.72L44.86 15.72Q44.86 14.69 45.70 14.02Q46.54 13.35 47.89 13.35L47.89 13.35Q48.78 13.35 49.47 13.68Q50.17 14.01 50.57 14.61Q50.97 15.22 50.97 15.96L50.97 15.96L49.49 15.96Q49.49 15.29 49.07 14.91Q48.65 14.54 47.87 14.54L47.87 14.54Q47.15 14.54 46.75 14.85Q46.34 15.16 46.34 15.71L46.34 15.71Q46.34 16.18 46.78 16.50Q47.21 16.81 48.21 17.10Q49.20 17.40 49.81 17.78Q50.41 18.16 50.69 18.65Q50.97 19.13 50.97 19.79L50.97 19.79Q50.97 20.86 50.16 21.49Q49.34 22.12 47.94 22.12L47.94 22.12Q47.01 22.12 46.24 21.77Q45.46 21.43 45.03 20.83Q44.60 20.22 44.60 19.42Z" fill="#FFFFFF"/><path class="svg__text" d="M79.46 22L77.08 22L77.08 13.60L80.92 13.60Q82.06 13.60 82.90 13.98Q83.74 14.35 84.20 15.06Q84.65 15.76 84.65 16.71L84.65 16.71Q84.65 17.62 84.23 18.30Q83.80 18.98 83.01 19.36L83.01 19.36L84.82 22L82.28 22L80.75 19.77L79.46 19.77L79.46 22ZM79.46 15.47L79.46 17.93L80.78 17.93Q81.51 17.93 81.88 17.61Q82.25 17.29 82.25 16.71L82.25 16.71Q82.25 16.12 81.88 15.79Q81.51 15.47 80.78 15.47L80.78 15.47L79.46 15.47ZM96.19 22L89.44 22L89.44 13.60L96.03 13.60L96.03 15.44L91.80 15.44L91.80 16.85L95.53 16.85L95.53 18.63L91.80 18.63L91.80 20.17L96.19 20.17L96.19 22ZM104.96 22L100.99 22L100.99 13.60L104.96 13.60Q106.35 13.60 107.41 14.12Q108.48 14.63 109.07 15.58Q109.66 16.53 109.66 17.80L109.66 17.80Q109.66 19.07 109.07 20.02Q108.48 20.97 107.41 21.48Q106.35 22 104.96 22L104.96 22ZM103.37 15.50L103.37 20.10L104.87 20.10Q105.95 20.10 106.60 19.49Q107.25 18.88 107.25 17.80L107.25 17.80Q107.25 16.72 106.60 16.11Q105.95 15.50 104.87 15.50L104.87 15.50L103.37 15.50ZM114.31 18.26L114.31 18.26L114.31 13.60L116.69 13.60L116.69 18.19Q116.69 20.20 118.29 20.20L118.29 20.20Q119.87 20.20 119.87 18.19L119.87 18.19L119.87 13.60L122.21 13.60L122.21 18.26Q122.21 20.13 121.17 21.15Q120.13 22.17 118.26 22.17L118.26 22.17Q116.39 22.17 115.35 21.15Q114.31 20.13 114.31 18.26ZM129.15 22L126.44 22L129.50 17.75L126.57 13.60L129.24 13.60L130.93 16.02L132.58 13.60L135.15 13.60L132.22 17.66L135.34 22L132.61 22L130.87 19.40L129.15 22Z" fill="#FFFFFF" x="75.89"/></svg>